<svg id="Layer_1" data-name="Layer 1" xmlns="http://www.w3.org/2000/svg" viewBox="0 0 100 67.84"><defs><style>.cls-1{fill:#fff;}</style></defs><title>hamburger-menu-icon</title><path class="cls-1" d="M94.18,27.72H5.82a5.82,5.82,0,0,1,0-11.64H94.18a5.82,5.82,0,0,1,0,11.64Z" transform="translate(0 -16.08)"/><path class="cls-1" d="M94.18,55.82H5.82a5.82,5.82,0,1,1,0-11.64H94.18a5.82,5.82,0,0,1,0,11.64Z" transform="translate(0 -16.08)"/><path class="cls-1" d="M94.18,83.92H5.82a5.82,5.82,0,1,1,0-11.64H94.18a5.82,5.82,0,0,1,0,11.64Z" transform="translate(0 -16.08)"/></svg>